<svg xmlns="http://www.w3.org/2000/svg" xmlns:xlink="http://www.w3.org/1999/xlink" viewBox="0 0 1080 1080" width="1080"
    height="1080" preserveAspectRatio="xMidYMid meet">
    <defs>
        <clipPath id="__lottie_element_54">
            <rect width="1080" height="1080" x="0" y="0"></rect>
        </clipPath>
        <clipPath id="__lottie_element_56">
            <path d="M0,0 L1080,0 L1080,1080 L0,1080z"></path>
        </clipPath>
        <filter id="__lottie_element_58" x="-100%" y="-100%" width="300%" height="300%">
            <feGaussianBlur result="filter_result_0" stdDeviation="9.18 9.18" edgeMode="duplicate"></feGaussianBlur>
        </filter>
        <g id="__lottie_element_59">
            <g transform="matrix(1,0,0,1,468.823974609375,449.423828125)" opacity="1" style="display: block;">
                <g opacity="1" transform="matrix(1,0,0,1,0,0)">
                    <g opacity="1" transform="matrix(1,0,0,1,0,0)">
                        <path fill="rgb(240,187,187)" fill-opacity="1"
                            d=" M40.72600173950195,240.3560028076172 C48.367000579833984,251.88099670410156 66.19499969482422,251.88099670410156 73.83599853515625,240.3560028076172 C197.7830047607422,67.48799896240234 220.70399475097656,49.37900161743164 220.70399475097656,-14.829000473022461 C220.70399475097656,-102.08599853515625 147.69400024414062,-172.87899780273438 57.70600128173828,-172.87899780273438 C-33.13199996948242,-172.87899780273438 -105.29299926757812,-102.08599853515625 -105.29299926757812,-14.829000473022461 C-105.29299926757812,49.37900161743164 -83.22100067138672,67.48799896240234 40.72600173950195,240.3560028076172z">
                        </path>
                    </g>
                </g>
            </g>
        </g>
        <filter id="__lottie_element_64">
            <feColorMatrix type="matrix" color-interpolation-filters="sRGB"
                values="0 0 0 0 1 0 0 0 0 0 0 0 0 0 0 0 0 0 1 0" result="filter_result_0"></feColorMatrix>
        </filter>
        <linearGradient id="__lottie_element_65" spreadMethod="pad" gradientUnits="userSpaceOnUse" x1="-749"
            y1="-364.46600341796875" x2="-390.66400146484375" y2="-330.3389892578125">
            <stop offset="0%" stop-color="rgb(192,33,33)"></stop>
            <stop offset="50%" stop-color="rgb(222,18,18)"></stop>
            <stop offset="100%" stop-color="rgb(255,0,0)"></stop>
        </linearGradient>
        <mask id="__lottie_element_59_1" mask-type="alpha">
            <use xlink:href="#__lottie_element_59"></use>
        </mask>
        <filter id="__lottie_element_77">
            <feColorMatrix type="matrix" color-interpolation-filters="sRGB"
                values="0 0 0 0 1 0 0 0 0 0 0 0 0 0 0 0 0 0 1 0" result="filter_result_0"></feColorMatrix>
        </filter>
        <linearGradient id="__lottie_element_78" spreadMethod="pad" gradientUnits="userSpaceOnUse" x1="-749"
            y1="-364.46600341796875" x2="-390.66400146484375" y2="-330.3389892578125">
            <stop offset="0%" stop-color="rgb(192,33,33)"></stop>
            <stop offset="50%" stop-color="rgb(222,18,18)"></stop>
            <stop offset="100%" stop-color="rgb(255,0,0)"></stop>
        </linearGradient>
    </defs>
    <g clip-path="url(#__lottie_element_54)">
        <g mask="url(#__lottie_element_59_1)">
            <g clip-path="url(#__lottie_element_56)" filter="url(#__lottie_element_58)" transform="matrix(1,0,0,1,0,0)"
                opacity="1">
                <g filter="url(#__lottie_element_77)"
                    transform="matrix(1.100000023841858,0,0,1.100000023841858,530.1302490234375,532.796630859375)"
                    opacity="1" style="display: block;">
                    <g opacity="1" transform="matrix(1,0,0,1,0,0)">
                        <path fill="url(#__lottie_element_78)" fill-opacity="1"
                            d=" M-19,-249.58399963378906 C-19,-249.58399963378906 -18.999000549316406,-249.58399963378906 -18.999000549316406,-249.58399963378906 C92.2040023803711,-249.58399963378906 182.3509979248047,-159.43699645996094 182.3509979248047,-48.23400115966797 C182.3509979248047,-48.23400115966797 182.3509979248047,-48.231998443603516 182.3509979248047,-48.231998443603516 C182.3509979248047,62.97100067138672 92.2040023803711,153.1179962158203 -18.999000549316406,153.1179962158203 C-18.999000549316406,153.1179962158203 -19,153.1179962158203 -19,153.1179962158203 C-130.2030029296875,153.1179962158203 -220.3509979248047,62.97100067138672 -220.3509979248047,-48.231998443603516 C-220.3509979248047,-48.231998443603516 -220.3509979248047,-48.23400115966797 -220.3509979248047,-48.23400115966797 C-220.3509979248047,-159.43699645996094 -130.2030029296875,-249.58399963378906 -19,-249.58399963378906z">
                        </path>
                    </g>
                </g>
            </g>
        </g>
        <g filter="url(#__lottie_element_64)"
            transform="matrix(0.9399999976158142,0,0,0.9399999976158142,527.0902099609375,525.079345703125)" opacity="1"
            style="display: block;">
            <g opacity="1" transform="matrix(1,0,0,1,0,0)">
                <path fill="url(#__lottie_element_65)" fill-opacity="1"
                    d=" M-19,-249.58399963378906 C-19,-249.58399963378906 -18.999000549316406,-249.58399963378906 -18.999000549316406,-249.58399963378906 C92.2040023803711,-249.58399963378906 182.3509979248047,-159.43699645996094 182.3509979248047,-48.23400115966797 C182.3509979248047,-48.23400115966797 182.3509979248047,-48.231998443603516 182.3509979248047,-48.231998443603516 C182.3509979248047,62.97100067138672 92.2040023803711,153.1179962158203 -18.999000549316406,153.1179962158203 C-18.999000549316406,153.1179962158203 -19,153.1179962158203 -19,153.1179962158203 C-130.2030029296875,153.1179962158203 -220.3509979248047,62.97100067138672 -220.3509979248047,-48.231998443603516 C-220.3509979248047,-48.231998443603516 -220.3509979248047,-48.23400115966797 -220.3509979248047,-48.23400115966797 C-220.3509979248047,-159.43699645996094 -130.2030029296875,-249.58399963378906 -19,-249.58399963378906z">
                </path>
            </g>
        </g>
        <g transform="matrix(1,0,0,1,468.823974609375,449.423828125)" opacity="0.75" style="display: block;">
            <g opacity="1" transform="matrix(1,0,0,1,0,0)">
                <g opacity="1" transform="matrix(1,0,0,1,0,0)">
                    <path fill="rgb(240,187,187)" fill-opacity="1"
                        d=" M40.72600173950195,240.3560028076172 C48.367000579833984,251.88099670410156 66.19499969482422,251.88099670410156 73.83599853515625,240.3560028076172 C197.7830047607422,67.48799896240234 220.70399475097656,49.37900161743164 220.70399475097656,-14.829000473022461 C220.70399475097656,-102.08599853515625 147.69400024414062,-172.87899780273438 57.70600128173828,-172.87899780273438 C-33.13199996948242,-172.87899780273438 -105.29299926757812,-102.08599853515625 -105.29299926757812,-14.829000473022461 C-105.29299926757812,49.37900161743164 -83.22100067138672,67.48799896240234 40.72600173950195,240.3560028076172z">
                    </path>
                </g>
            </g>
        </g>
        <g transform="matrix(1,0,0,1,468.823974609375,449.423828125)" opacity="0.76" style="display: block;">
            <g opacity="1" transform="matrix(1,0,0,1,0,0)">
                <g opacity="1" transform="matrix(1,0,0,1,0,0)">
                    <path stroke-linecap="butt" stroke-linejoin="miter" fill-opacity="0" stroke-miterlimit="4"
                        stroke="rgb(224,224,224)" stroke-opacity="1" stroke-width="2"
                        d=" M40.72600173950195,240.3560028076172 C48.367000579833984,251.88099670410156 66.19499969482422,251.88099670410156 73.83599853515625,240.3560028076172 C197.7830047607422,67.48799896240234 220.70399475097656,49.37900161743164 220.70399475097656,-14.829000473022461 C220.70399475097656,-102.08599853515625 147.69400024414062,-172.87899780273438 57.70600128173828,-172.87899780273438 C-33.13199996948242,-172.87899780273438 -105.29299926757812,-102.08599853515625 -105.29299926757812,-14.829000473022461 C-105.29299926757812,49.37900161743164 -83.22100067138672,67.48799896240234 40.72600173950195,240.3560028076172z">
                    </path>
                </g>
            </g>
        </g>
        <g transform="matrix(1,0,0,1,468.823974609375,449.423828125)" opacity="1" style="display: block;">
            <g opacity="1" transform="matrix(1,0,0,1,0,0)">
                <path fill="rgb(255,255,255)" fill-opacity="1"
                    d=" M59.41299819946289,-82.9990005493164 C96.48100280761719,-82.9990005493164 126.52999877929688,-52.95000076293945 126.52999877929688,-15.881999969482422 C126.52999877929688,21.18600082397461 96.48100280761719,51.23500061035156 59.41299819946289,51.23500061035156 C22.344999313354492,51.23500061035156 -7.703999996185303,21.18600082397461 -7.703999996185303,-15.881999969482422 C-7.703999996185303,-52.95000076293945 22.344999313354492,-82.9990005493164 59.41299819946289,-82.9990005493164z">
                </path>
            </g>
        </g>
    </g>
</svg>