<svg xmlns="http://www.w3.org/2000/svg" xmlns:xlink="http://www.w3.org/1999/xlink" viewBox="0 0 500 500" width="500"
    height="500" preserveAspectRatio="xMidYMid meet"
    style="width: 100%; height: 100%; transform: translate3d(0px, 0px, 0px); content-visibility: visible;">
    <defs>
        <clipPath id="__lottie_element_3434">
            <rect width="500" height="500" x="0" y="0"></rect>
        </clipPath>
        <linearGradient id="__lottie_element_3440" spreadMethod="pad" gradientUnits="userSpaceOnUse"
            x1="-0.09799999743700027" y1="-141.85400390625" x2="-0.09799999743700027" y2="113.66400146484375">
            <stop offset="0%" stop-color="rgb(255,255,255)"></stop>
            <stop offset="39%" stop-color="rgb(203,213,231)"></stop>
            <stop offset="100%" stop-color="rgb(151,171,206)"></stop>
        </linearGradient>
        <g id="__lottie_element_3443">
            <g transform="matrix(1,0,0,1,250,250)" opacity="1" style="display: block;">
                <g opacity="1" transform="matrix(1,0,0,1,0,0)">
                    <path fill="url(#__lottie_element_3446)" fill-opacity="1"
                        d=" M0.40299999713897705,-157.13999938964844 C0.40299999713897705,-157.13999938964844 0.4020000100135803,-157.13999938964844 0.4020000100135803,-157.13999938964844 C-62.834999084472656,-157.13999938964844 -114.0979995727539,-105.87699890136719 -114.0979995727539,-42.63999938964844 C-114.0979995727539,-42.63999938964844 -114.0979995727539,46.59700012207031 -114.0979995727539,46.59700012207031 C-114.0979995727539,59.9630012512207 -119.9010009765625,72.66999816894531 -130.0019989013672,81.4229965209961 C-130.0019989013672,81.4229965209961 -139.78599548339844,89.9000015258789 -139.78599548339844,89.9000015258789 C-158.21499633789062,105.86799621582031 -146.92100524902344,136.14599609375 -122.53700256347656,136.14599609375 C-122.53700256347656,136.14599609375 123.34200286865234,136.14599609375 123.34200286865234,136.14599609375 C147.7259979248047,136.14599609375 159.02000427246094,105.86799621582031 140.59100341796875,89.9000015258789 C140.59100341796875,89.9000015258789 130.8070068359375,81.4229965209961 130.8070068359375,81.4229965209961 C120.70600128173828,72.66999816894531 114.9020004272461,59.9630012512207 114.9020004272461,46.59700012207031 C114.9020004272461,46.59700012207031 114.9020004272461,-42.63999938964844 114.9020004272461,-42.63999938964844 C114.9020004272461,-105.87699890136719 63.63999938964844,-157.13999938964844 0.40299999713897705,-157.13999938964844z">
                    </path>
                </g>
            </g>
        </g>
        <linearGradient id="__lottie_element_3446" spreadMethod="pad" gradientUnits="userSpaceOnUse"
            x1="-0.09799999743700027" y1="-141.85400390625" x2="-0.09799999743700027" y2="113.66400146484375">
            <stop offset="0%" stop-color="rgb(255,255,255)"></stop>
            <stop offset="39%" stop-color="rgb(203,213,231)"></stop>
            <stop offset="100%" stop-color="rgb(151,171,206)"></stop>
        </linearGradient>
        <filter id="__lottie_element_3448" x="-100%" y="-100%" width="300%" height="300%">
            <feGaussianBlur result="filter_result_0" stdDeviation="12 12" edgeMode="duplicate"></feGaussianBlur>
        </filter>
        <g id="__lottie_element_3449">
            <g filter="url(#__lottie_element_3451)" transform="matrix(1,0,0,1,250,250)" opacity="1"
                style="display: block;">
                <g opacity="1" transform="matrix(1,0,0,1,0,0)">
                    <path fill="url(#__lottie_element_3452)" fill-opacity="1"
                        d=" M0.40299999713897705,-157.13999938964844 C0.40299999713897705,-157.13999938964844 0.4020000100135803,-157.13999938964844 0.4020000100135803,-157.13999938964844 C-62.834999084472656,-157.13999938964844 -114.0979995727539,-105.87699890136719 -114.0979995727539,-42.63999938964844 C-114.0979995727539,-42.63999938964844 -114.0979995727539,46.59700012207031 -114.0979995727539,46.59700012207031 C-114.0979995727539,59.9630012512207 -119.9010009765625,72.66999816894531 -130.0019989013672,81.4229965209961 C-130.0019989013672,81.4229965209961 -139.78599548339844,89.9000015258789 -139.78599548339844,89.9000015258789 C-158.21499633789062,105.86799621582031 -146.92100524902344,136.14599609375 -122.53700256347656,136.14599609375 C-122.53700256347656,136.14599609375 123.34200286865234,136.14599609375 123.34200286865234,136.14599609375 C147.7259979248047,136.14599609375 159.02000427246094,105.86799621582031 140.59100341796875,89.9000015258789 C140.59100341796875,89.9000015258789 130.8070068359375,81.4229965209961 130.8070068359375,81.4229965209961 C120.70600128173828,72.66999816894531 114.9020004272461,59.9630012512207 114.9020004272461,46.59700012207031 C114.9020004272461,46.59700012207031 114.9020004272461,-42.63999938964844 114.9020004272461,-42.63999938964844 C114.9020004272461,-105.87699890136719 63.63999938964844,-157.13999938964844 0.40299999713897705,-157.13999938964844z">
                    </path>
                </g>
            </g>
        </g>
        <filter id="__lottie_element_3451" x="-100%" y="-100%" width="300%" height="300%">
            <feGaussianBlur result="filter_result_0" stdDeviation="24 24" edgeMode="duplicate"></feGaussianBlur>
        </filter>
        <linearGradient id="__lottie_element_3452" spreadMethod="pad" gradientUnits="userSpaceOnUse"
            x1="-0.09799999743700027" y1="-141.85400390625" x2="-0.09799999743700027" y2="113.66400146484375">
            <stop offset="0%" stop-color="rgb(255,255,255)"></stop>
            <stop offset="39%" stop-color="rgb(203,213,231)"></stop>
            <stop offset="100%" stop-color="rgb(151,171,206)"></stop>
        </linearGradient>
        <linearGradient id="__lottie_element_3456" spreadMethod="pad" gradientUnits="userSpaceOnUse"
            x1="-0.09799999743700027" y1="84.14600372314453" x2="-0.09799999743700027" y2="-145.6929931640625">
            <stop offset="0%" stop-color="rgb(255,255,255)"></stop>
            <stop offset="39%" stop-color="rgb(203,213,231)"></stop>
            <stop offset="100%" stop-color="rgb(151,171,206)"></stop>
        </linearGradient>
        <mask id="__lottie_element_3449_1" mask-type="alpha">
            <use xlink:href="#__lottie_element_3449"></use>
        </mask>
        <filter id="__lottie_element_3457" filterUnits="objectBoundingBox" x="0%" y="0%" width="100%" height="100%">
            <feComponentTransfer in="SourceGraphic">
                <feFuncA type="table" tableValues="1.0 0.0"></feFuncA>
            </feComponentTransfer>
        </filter>
        <mask id="__lottie_element_3443_2" mask-type="alpha">
            <g filter="url(#__lottie_element_3457)">
                <rect width="500" height="500" x="0" y="0" fill="#ffffff" opacity="0"></rect>
                <use xlink:href="#__lottie_element_3443"></use>
            </g>
        </mask>
    </defs>
    <g clip-path="url(#__lottie_element_3434)">
        <g mask="url(#__lottie_element_3449_1)" style="display: block;">
            <g filter="url(#__lottie_element_3448)" transform="matrix(1,0,0,1,257.3092041015625,248.5)" opacity="1">
                <g opacity="1" transform="matrix(1,0,0,1,0,0)">
                    <path fill="rgb(255,109,0)" fill-opacity="1"
                        d=" M71.4020004272461,136.14599609375 C71.4020004272461,175.35800170898438 39.61399841308594,207.14599609375 0.4020000100135803,207.14599609375 C-38.810001373291016,207.14599609375 -70.5979995727539,175.35800170898438 -70.5979995727539,136.14599609375 C-70.5979995727539,96.93399810791016 -38.810001373291016,65.14600372314453 0.4020000100135803,65.14600372314453 C39.61399841308594,65.14600372314453 71.4020004272461,96.93399810791016 71.4020004272461,136.14599609375z">
                    </path>
                </g>
            </g>
        </g>
        <g mask="url(#__lottie_element_3443_2)" style="display: block;">
            <g transform="matrix(1,0,0,1,257.3092041015625,248.5)" opacity="1">
                <g opacity="1" transform="matrix(1,0,0,1,0,0)">
                    <path fill="rgb(255,109,0)" fill-opacity="1"
                        d=" M71.4020004272461,136.14599609375 C71.4020004272461,175.35800170898438 39.61399841308594,207.14599609375 0.4020000100135803,207.14599609375 C-38.810001373291016,207.14599609375 -70.5979995727539,175.35800170898438 -70.5979995727539,136.14599609375 C-70.5979995727539,96.93399810791016 -38.810001373291016,65.14600372314453 0.4020000100135803,65.14600372314453 C39.61399841308594,65.14600372314453 71.4020004272461,96.93399810791016 71.4020004272461,136.14599609375z">
                    </path>
                </g>
            </g>
        </g>
        <g transform="matrix(1,0,0,1,250,250)" opacity="0.2" style="display: block;">
            <g opacity="1" transform="matrix(1,0,0,1,0,0)">
                <path fill="url(#__lottie_element_3440)" fill-opacity="1"
                    d=" M0.40299999713897705,-157.13999938964844 C0.40299999713897705,-157.13999938964844 0.4020000100135803,-157.13999938964844 0.4020000100135803,-157.13999938964844 C-62.834999084472656,-157.13999938964844 -114.0979995727539,-105.87699890136719 -114.0979995727539,-42.63999938964844 C-114.0979995727539,-42.63999938964844 -114.0979995727539,46.59700012207031 -114.0979995727539,46.59700012207031 C-114.0979995727539,59.9630012512207 -119.9010009765625,72.66999816894531 -130.0019989013672,81.4229965209961 C-130.0019989013672,81.4229965209961 -139.78599548339844,89.9000015258789 -139.78599548339844,89.9000015258789 C-158.21499633789062,105.86799621582031 -146.92100524902344,136.14599609375 -122.53700256347656,136.14599609375 C-122.53700256347656,136.14599609375 123.34200286865234,136.14599609375 123.34200286865234,136.14599609375 C147.7259979248047,136.14599609375 159.02000427246094,105.86799621582031 140.59100341796875,89.9000015258789 C140.59100341796875,89.9000015258789 130.8070068359375,81.4229965209961 130.8070068359375,81.4229965209961 C120.70600128173828,72.66999816894531 114.9020004272461,59.9630012512207 114.9020004272461,46.59700012207031 C114.9020004272461,46.59700012207031 114.9020004272461,-42.63999938964844 114.9020004272461,-42.63999938964844 C114.9020004272461,-105.87699890136719 63.63999938964844,-157.13999938964844 0.40299999713897705,-157.13999938964844z">
                </path>
            </g>
        </g>
        <g transform="matrix(1,0,0,1,250,250)" opacity="0.4" style="display: block;">
            <g opacity="1" transform="matrix(1,0,0,1,0,0)">
                <path fill="url(#__lottie_element_3456)" fill-opacity="1"
                    d=" M0.40299999713897705,-153.13999938964844 C29.91900062561035,-153.13999938964844 57.66699981689453,-141.64599609375 78.53800201416016,-120.7750015258789 C99.40899658203125,-99.90399932861328 110.9020004272461,-72.15599822998047 110.9020004272461,-42.63999938964844 C110.9020004272461,-42.63999938964844 110.9020004272461,46.59700012207031 110.9020004272461,46.59700012207031 C110.9020004272461,61.13199996948242 117.2030029296875,74.9280014038086 128.18800354003906,84.44599914550781 C128.18800354003906,84.44599914550781 137.9709930419922,92.9229965209961 137.9709930419922,92.9229965209961 C146.61399841308594,100.41200256347656 146.89300537109375,110.58699798583984 144.2729949951172,117.61299896240234 C141.6529998779297,124.63899993896484 134.7779998779297,132.14599609375 123.34200286865234,132.14599609375 C123.34200286865234,132.14599609375 -122.53700256347656,132.14599609375 -122.53700256347656,132.14599609375 C-133.97300720214844,132.14599609375 -140.84800720214844,124.63899993896484 -143.46800231933594,117.61299896240234 C-146.08799743652344,110.58699798583984 -145.8090057373047,100.41200256347656 -137.16600036621094,92.9229965209961 C-137.16600036621094,92.9229965209961 -127.38300323486328,84.44599914550781 -127.38300323486328,84.44599914550781 C-116.39800262451172,74.9280014038086 -110.0979995727539,61.13199996948242 -110.0979995727539,46.59700012207031 C-110.0979995727539,46.59700012207031 -110.0979995727539,-42.63999938964844 -110.0979995727539,-42.63999938964844 C-110.0979995727539,-72.15599822998047 -98.60399627685547,-99.90399932861328 -77.73300170898438,-120.7750015258789 C-56.86199951171875,-141.64599609375 -29.113000869750977,-153.13999938964844 0.40299999713897705,-153.13999938964844 M0.40299999713897705,-157.13999938964844 C0.40299999713897705,-157.13999938964844 0.4020000100135803,-157.13999938964844 0.4020000100135803,-157.13999938964844 C-62.834999084472656,-157.13999938964844 -114.0979995727539,-105.87699890136719 -114.0979995727539,-42.63999938964844 C-114.0979995727539,-42.63999938964844 -114.0979995727539,46.59700012207031 -114.0979995727539,46.59700012207031 C-114.0979995727539,59.9630012512207 -119.9010009765625,72.66999816894531 -130.0019989013672,81.4229965209961 C-130.0019989013672,81.4229965209961 -139.78599548339844,89.9000015258789 -139.78599548339844,89.9000015258789 C-158.21499633789062,105.86799621582031 -146.92100524902344,136.14599609375 -122.53700256347656,136.14599609375 C-122.53700256347656,136.14599609375 123.34200286865234,136.14599609375 123.34200286865234,136.14599609375 C147.7259979248047,136.14599609375 159.02000427246094,105.86799621582031 140.59100341796875,89.9000015258789 C140.59100341796875,89.9000015258789 130.8070068359375,81.4229965209961 130.8070068359375,81.4229965209961 C120.70600128173828,72.66999816894531 114.9020004272461,59.9630012512207 114.9020004272461,46.59700012207031 C114.9020004272461,46.59700012207031 114.9020004272461,-42.63999938964844 114.9020004272461,-42.63999938964844 C114.9020004272461,-105.87699890136719 63.63999938964844,-157.13999938964844 0.40299999713897705,-157.13999938964844 C0.40299999713897705,-157.13999938964844 0.40299999713897705,-157.13999938964844 0.40299999713897705,-157.13999938964844z">
                </path>
            </g>
        </g>
    </g>
</svg>